<?xml version="1.0" encoding="UTF-8" standalone="no"?>
<svg
   xmlns:dc="http://purl.org/dc/elements/1.1/"
   xmlns:cc="http://creativecommons.org/ns#"
   xmlns:rdf="http://www.w3.org/1999/02/22-rdf-syntax-ns#"
   xmlns:svg="http://www.w3.org/2000/svg"
   xmlns="http://www.w3.org/2000/svg"
   viewBox="0 0 400.97333 239.75999"
   height="239.75999"
   width="400.97333"
   xml:space="preserve"
   id="svg2"
   version="1.1"><metadata
     id="metadata8"><rdf:RDF><cc:Work
         rdf:about=""><dc:format>image/svg+xml</dc:format><dc:type
           rdf:resource="http://purl.org/dc/dcmitype/StillImage" /></cc:Work></rdf:RDF></metadata><defs
     id="defs6" /><g
     transform="matrix(1.3333333,0,0,-1.3333333,0,239.76)"
     id="g10"><g
       transform="scale(0.1)"
       id="g12"><path
         id="path14"
         style="fill:#ffffff;fill-opacity:1;fill-rule:nonzero;stroke:none"
         d="m 2529.17,858.48 c -52.5,0 -103.85,5.848 -154.01,17.5 -50.17,11.649 -88.67,25.079 -115.5,40.254 -16.34,9.317 -26.55,18.641 -30.62,27.996 -4.1,9.329 -6.12,18.641 -6.12,28 v 50.75 c 0,21 7.57,31.5 22.75,31.5 5.82,0 11.94,-1.18 18.37,-3.5 6.4,-2.35 14.87,-5.85 25.38,-10.5 33.82,-15.18 70.57,-26.85 110.24,-35 39.65,-8.171 79.33,-12.253 119.01,-12.253 63,0 111.7,11.073 146.12,33.253 34.4,22.15 51.62,53.65 51.62,94.5 0,28 -9.04,51.33 -27.12,70 -18.1,18.65 -51.63,36.15 -100.62,52.5 l -145.26,45.5 c -73.49,23.33 -126.87,57.15 -160.12,101.5 -33.25,44.32 -49.88,92.75 -49.88,145.25 0,42 9.03,79.02 27.13,111.12 18.08,32.08 42,59.51 71.75,82.26 29.75,22.74 64.45,39.94 104.12,51.62 39.65,11.65 81.65,17.5 126.01,17.5 22.15,0 44.62,-1.48 67.37,-4.37 22.75,-2.93 44.33,-6.73 64.75,-11.38 20.4,-4.68 39.37,-9.93 56.87,-15.75 17.5,-5.85 31.51,-11.68 42,-17.5 14.01,-8.18 23.9,-16.35 29.76,-24.5 5.82,-8.18 8.75,-19.25 8.75,-33.25 v -47.25 c 0,-21 -7.61,-31.5 -22.75,-31.5 -8.18,0 -21,4.07 -38.5,12.25 -57.18,25.65 -121.36,38.5 -192.5,38.5 -57.18,0 -101.5,-9.35 -133.01,-28 -31.49,-18.68 -47.24,-48.43 -47.24,-89.25 0,-28 9.9,-51.63 29.74,-70.87 19.83,-19.25 56.58,-37.63 110.26,-55.13 l 141.74,-45.5 c 72.33,-23.35 123.96,-55.43 154.88,-96.25 30.9,-40.85 46.37,-87.5 46.37,-140 0,-43.18 -8.75,-81.97 -26.25,-116.38 -17.5,-34.42 -41.72,-63.873 -72.62,-88.366 -30.92,-24.504 -67.97,-43.183 -111.13,-56.007 -43.17,-12.821 -90.42,-19.247 -141.74,-19.247 z m -1284.51,26.25 c -17.5,0 -30.35,3.204 -38.49,9.629 -8.18,6.395 -15.18,19.52 -21.01,39.375 L 950.668,1707.23 c -5.859,19.82 -8.75,33.25 -8.75,40.25 0,16.32 8.145,24.5 24.492,24.5 h 98.01 c 18.64,0 31.77,-3.23 39.37,-9.62 7.57,-6.43 14.27,-19.56 20.12,-39.38 l 168.01,-661.5 155.74,661.5 c 4.65,19.82 11.08,32.95 19.26,39.38 8.14,6.39 21.57,9.62 40.24,9.62 h 80.5 c 18.65,0 32.08,-3.23 40.26,-9.62 8.14,-6.43 14.57,-19.56 19.24,-39.38 l 157.5,-670.25 173.26,670.25 c 5.82,19.82 12.52,32.95 20.12,39.38 7.57,6.39 20.7,9.62 39.38,9.62 h 92.74 c 16.33,0 24.5,-8.18 24.5,-24.5 0,-4.68 -0.59,-9.93 -1.74,-15.75 -1.18,-5.85 -3.5,-14 -7.01,-24.5 L 1904.42,933.734 c -5.86,-19.855 -12.85,-32.98 -21.01,-39.375 -8.17,-6.425 -20.99,-9.629 -38.49,-9.629 h -85.75 c -18.68,0 -32.1,3.497 -40.26,10.497 -8.17,7.003 -14.6,20.402 -19.25,40.253 l -155.75,644 -153.99,-644 c -4.68,-19.851 -11.11,-33.25 -19.25,-40.253 -8.18,-7 -21.6,-10.497 -40.25,-10.497 z M 441.41,993.227 c 32.656,0 67.082,6.132 103.254,18.383 36.152,12.24 67.645,33.52 94.504,63.87 16.324,18.65 27.691,39.95 34.117,63.88 6.406,23.89 9.633,52.77 9.633,86.62 v 42 c -29.184,7 -59.809,12.52 -91.875,16.62 -32.102,4.08 -63.305,6.13 -93.625,6.13 -66.504,0 -116.105,-13.42 -148.75,-40.25 -32.676,-26.85 -49.004,-65.35 -49.004,-115.5 0,-46.68 12.254,-81.98 36.746,-105.87 24.504,-23.93 59.504,-35.883 105,-35.883 z m 406.008,152.253 c 0,-37.35 3.77,-67.1 11.375,-89.25 7.57,-22.18 18.371,-46.1 32.375,-71.753 4.648,-8.176 7,-15.743 7,-22.747 0,-10.496 -6.426,-20.429 -19.258,-29.753 l -62.996,-41.993 c -9.348,-5.832 -18.098,-8.75 -26.25,-8.75 -10.496,0 -20.422,4.649 -29.746,13.993 -14.004,14.003 -25.977,29.453 -35.879,46.378 -9.922,16.891 -20.129,36.446 -30.625,58.625 -78.176,-92.179 -176.172,-138.253 -293.996,-138.253 -84.004,0 -150.508,23.906 -199.5,71.757 -49.004,47.821 -73.508,111.996 -73.508,192.496 0,85.15 30.332,153.7 91.008,205.63 60.645,51.89 142.324,77.87 245,77.87 33.816,0 69.121,-2.63 105.867,-7.87 36.758,-5.25 74.953,-12.56 114.633,-21.88 v 73.5 c 0,75.82 -15.754,129.2 -47.25,160.13 -31.5,30.89 -85.75,46.37 -162.754,46.37 -35,0 -70.879,-4.38 -107.625,-13.13 -36.75,-8.75 -72.629,-20.12 -107.629,-34.12 -16.347,-7 -27.996,-11.37 -35,-13.13 -6.992,-1.74 -12.246,-2.62 -15.742,-2.62 -14.004,0 -21.004,10.5 -21.004,31.5 v 49 c 0,16.32 2.324,28 7,35 4.649,7 14.004,14 28,21 35,17.5 77,32.65 126.004,45.5 48.996,12.82 100.898,19.25 155.742,19.25 119.008,0 206.203,-27.12 261.633,-81.38 55.398,-54.24 83.125,-136.22 83.125,-245.87 v -325.5" /><path
         id="path16"
         style="fill:#ffffff;fill-opacity:1;fill-rule:evenodd;stroke:none"
         d="M 2718.31,372.18 C 2389.05,129.199 1911.73,0 1500.69,0 924.629,0 405.867,212.941 13.3125,567.391 -17.5078,595.23 9.97656,633.238 47.0352,611.68 470.566,365.23 994.328,216.809 1535.28,216.809 c 364.92,0 766.05,75.73 1135.17,232.3 55.65,23.602 102.32,-36.679 47.86,-76.929" /><path
         id="path18"
         style="fill:#ffffff;fill-opacity:1;fill-rule:evenodd;stroke:none"
         d="m 2855.32,528.609 c -42.13,53.903 -278.36,25.539 -384.51,12.821 -32.16,-3.852 -37.14,24.25 -8.17,44.59 188.49,132.371 497.29,94.16 533.19,49.832 36.15,-44.704 -9.51,-354.321 -186.11,-502.071 -27.18,-22.711 -53.02,-10.59 -40.97,19.41 39.75,99.258 128.72,321.457 86.57,375.418" /></g></g></svg>