<?xml version="1.0" encoding="UTF-8"?>
<svg width="100px" height="100px" viewBox="0 0 100 100" version="1.1" xmlns="http://www.w3.org/2000/svg" xmlns:xlink="http://www.w3.org/1999/xlink">
    <!-- Generator: Sketch 53.2 (72643) - https://sketchapp.com -->
    <title>icon_detect_01</title>
    <desc>Created with Sketch.</desc>
    <g id="icon_detect_01" stroke="none" stroke-width="1" fill="none" fill-rule="evenodd" stroke-linecap="round">
        <g id="Group-2" transform="translate(24.000000, 23.000000)" stroke="#FFFFFF" stroke-width="4">
            <path d="M0,16.5 L0,5.5 C-3.38176876e-16,2.73857625 2.23857625,0.5 5,0.5 L16,0.5" id="Path"></path>
            <path d="M0,54.5 L0,43.5 C-3.38176876e-16,40.7385763 2.23857625,38.5 5,38.5 L16,38.5" id="Path-Copy-2" transform="translate(8.000000, 46.500000) scale(1, -1) translate(-8.000000, -46.500000) "></path>
            <path d="M36.5,16 L36.5,5 C36.5,2.23857625 38.7385763,5.07265313e-16 41.5,0 L51.5,0" id="Path-Copy" transform="translate(44.000000, 8.000000) rotate(-270.000000) translate(-44.000000, -8.000000) "></path>
            <path d="M36.5,54 L36.5,43 C36.5,40.2385763 38.7385763,38 41.5,38 L51.5,38" id="Path-Copy-3" transform="translate(44.000000, 46.000000) scale(1, -1) rotate(-270.000000) translate(-44.000000, -46.000000) "></path>
        </g>
    </g>
</svg>