<?xml version="1.0" encoding="UTF-8"?>
<svg width="100px" height="100px" viewBox="0 0 100 100" version="1.1" xmlns="http://www.w3.org/2000/svg" xmlns:xlink="http://www.w3.org/1999/xlink">
    <!-- Generator: Sketch 53.2 (72643) - https://sketchapp.com -->
    <title>icon_browse_01</title>
    <desc>Created with Sketch.</desc>
    <g id="icon_browse_01" stroke="none" stroke-width="1" fill="none" fill-rule="evenodd">
        <g id="Group-5" transform="translate(18.000000, 17.000000)">
            <circle id="Oval" stroke="#FFFFFF" stroke-width="3" cx="15" cy="15" r="13.5"></circle>
            <circle id="Oval-Copy-2" stroke="#FFFFFF" stroke-width="3" cx="15" cy="51" r="13.5"></circle>
            <circle id="Oval-Copy" stroke="#FFFFFF" stroke-width="3" cx="49" cy="15" r="13.5"></circle>
            <circle id="Oval-Copy-3" stroke="#FFFFFF" stroke-width="3" cx="49" cy="51" r="13.5"></circle>
            <g id="Group-4" transform="translate(9.000000, 11.000000)">
                <circle id="Oval" fill="#FFFFFF" cx="1.5" cy="1.5" r="1.5"></circle>
                <circle id="Oval-Copy-6" fill="#FFFFFF" cx="10.5" cy="1.5" r="1.5"></circle>
                <path d="M1.5,7.5 C4.5,10.3372396 7.5,10.3372396 10.5,7.5" id="Line" stroke="#FFFFFF" stroke-width="2" stroke-linecap="square"></path>
            </g>
            <g id="Group-4-Copy-4" transform="translate(9.000000, 47.000000)">
                <circle id="Oval" fill="#FFFFFF" cx="1.5" cy="1.5" r="1.5"></circle>
                <circle id="Oval-Copy-6" fill="#FFFFFF" cx="10.5" cy="1.5" r="1.5"></circle>
                <path d="M1.5,7.5 C4.5,10.3372396 7.5,10.3372396 10.5,7.5" id="Line" stroke="#FFFFFF" stroke-width="2" stroke-linecap="square"></path>
            </g>
            <g id="Group-4-Copy-2" transform="translate(43.000000, 11.000000)">
                <circle id="Oval" fill="#FFFFFF" cx="1.5" cy="1.5" r="1.5"></circle>
                <circle id="Oval-Copy-6" fill="#FFFFFF" cx="10.5" cy="1.5" r="1.5"></circle>
                <path d="M1.5,7.5 C4.5,10.3372396 7.5,10.3372396 10.5,7.5" id="Line" stroke="#FFFFFF" stroke-width="2" stroke-linecap="square"></path>
            </g>
            <g id="Group-4-Copy-5" transform="translate(43.000000, 47.000000)">
                <circle id="Oval" fill="#FFFFFF" cx="1.5" cy="1.5" r="1.5"></circle>
                <circle id="Oval-Copy-6" fill="#FFFFFF" cx="10.5" cy="1.5" r="1.5"></circle>
                <path d="M1.5,7.5 C4.5,10.3372396 7.5,10.3372396 10.5,7.5" id="Line" stroke="#FFFFFF" stroke-width="2" stroke-linecap="square"></path>
            </g>
        </g>
    </g>
</svg>